<svg id="visual" viewBox="0 0 900 450" width="900" height="450" xmlns="http://www.w3.org/2000/svg" xmlns:xlink="http://www.w3.org/1999/xlink" version="1.1"><g stroke-width="2" stroke-linejoin="bevel"><path d="M479 163L403 68L399 178Z" fill="#005880" stroke="#00171F"></path><path d="M479 163L491 75L403 68Z" fill="#004970" stroke="#00171F"></path><path d="M491 75L419 0L403 68Z" fill="#004970" stroke="#00171F"></path><path d="M316 0L312 75L403 68Z" fill="#004970" stroke="#00171F"></path><path d="M403 68L312 75L399 178Z" fill="#003b61" stroke="#00171F"></path><path d="M312 75L293 161L399 178Z" fill="#003b61" stroke="#00171F"></path><path d="M316 267L388 266L399 178Z" fill="#005178" stroke="#00171F"></path><path d="M399 178L511 264L479 163Z" fill="#005178" stroke="#00171F"></path><path d="M618 84L518 0L491 75Z" fill="#003459" stroke="#00171F"></path><path d="M491 75L518 0L419 0Z" fill="#007ea7" stroke="#00171F"></path><path d="M388 266L511 264L399 178Z" fill="#003459" stroke="#00171F"></path><path d="M479 163L580 198L491 75Z" fill="#006790" stroke="#00171F"></path><path d="M511 264L580 198L479 163Z" fill="#006e98" stroke="#00171F"></path><path d="M419 0L316 0L403 68Z" fill="#006790" stroke="#00171F"></path><path d="M312 75L203 82L293 161Z" fill="#004970" stroke="#00171F"></path><path d="M293 161L316 267L399 178Z" fill="#007ea7" stroke="#00171F"></path><path d="M580 198L618 84L491 75Z" fill="#004970" stroke="#00171F"></path><path d="M511 264L591 262L580 198Z" fill="#006e98" stroke="#00171F"></path><path d="M692 161L681 71L618 84Z" fill="#004970" stroke="#00171F"></path><path d="M618 84L620 0L518 0Z" fill="#005f88" stroke="#00171F"></path><path d="M316 0L203 82L312 75Z" fill="#003b61" stroke="#00171F"></path><path d="M293 161L201 269L316 267Z" fill="#006e98" stroke="#00171F"></path><path d="M388 266L486 359L511 264Z" fill="#005f88" stroke="#00171F"></path><path d="M511 264L610 355L591 262Z" fill="#004970" stroke="#00171F"></path><path d="M389 369L486 359L388 266Z" fill="#003459" stroke="#00171F"></path><path d="M316 267L389 369L388 266Z" fill="#005178" stroke="#00171F"></path><path d="M692 161L618 84L580 198Z" fill="#006790" stroke="#00171F"></path><path d="M618 84L681 71L620 0Z" fill="#00769f" stroke="#00171F"></path><path d="M203 82L183 194L293 161Z" fill="#003459" stroke="#00171F"></path><path d="M316 267L297 376L389 369Z" fill="#005178" stroke="#00171F"></path><path d="M591 262L692 161L580 198Z" fill="#006790" stroke="#00171F"></path><path d="M183 194L201 269L293 161Z" fill="#006e98" stroke="#00171F"></path><path d="M316 0L186 0L203 82Z" fill="#005f88" stroke="#00171F"></path><path d="M203 82L104 81L183 194Z" fill="#005f88" stroke="#00171F"></path><path d="M201 269L297 376L316 267Z" fill="#003459" stroke="#00171F"></path><path d="M597 450L610 355L486 359Z" fill="#00769f" stroke="#00171F"></path><path d="M486 359L610 355L511 264Z" fill="#004269" stroke="#00171F"></path><path d="M591 262L715 281L692 161Z" fill="#007ea7" stroke="#00171F"></path><path d="M403 450L486 359L389 369Z" fill="#00769f" stroke="#00171F"></path><path d="M780 0L720 0L681 71Z" fill="#004970" stroke="#00171F"></path><path d="M681 71L720 0L620 0Z" fill="#007ea7" stroke="#00171F"></path><path d="M684 350L715 281L591 262Z" fill="#004970" stroke="#00171F"></path><path d="M818 106L780 0L681 71Z" fill="#007ea7" stroke="#00171F"></path><path d="M297 376L403 450L389 369Z" fill="#005880" stroke="#00171F"></path><path d="M186 0L104 81L203 82Z" fill="#005178" stroke="#00171F"></path><path d="M183 194L109 254L201 269Z" fill="#005880" stroke="#00171F"></path><path d="M403 450L483 450L486 359Z" fill="#004970" stroke="#00171F"></path><path d="M610 355L684 350L591 262Z" fill="#005f88" stroke="#00171F"></path><path d="M186 0L117 0L104 81Z" fill="#006e98" stroke="#00171F"></path><path d="M684 450L684 350L610 355Z" fill="#003b61" stroke="#00171F"></path><path d="M104 81L92 191L183 194Z" fill="#006790" stroke="#00171F"></path><path d="M201 269L181 369L297 376Z" fill="#003b61" stroke="#00171F"></path><path d="M92 191L109 254L183 194Z" fill="#007ea7" stroke="#00171F"></path><path d="M297 376L284 450L403 450Z" fill="#006790" stroke="#00171F"></path><path d="M109 254L181 369L201 269Z" fill="#003b61" stroke="#00171F"></path><path d="M181 369L284 450L297 376Z" fill="#003b61" stroke="#00171F"></path><path d="M483 450L597 450L486 359Z" fill="#006790" stroke="#00171F"></path><path d="M818 106L681 71L692 161Z" fill="#004269" stroke="#00171F"></path><path d="M821 198L818 106L692 161Z" fill="#005880" stroke="#00171F"></path><path d="M801 250L692 161L715 281Z" fill="#004269" stroke="#00171F"></path><path d="M800 346L715 281L684 350Z" fill="#00769f" stroke="#00171F"></path><path d="M800 346L801 250L715 281Z" fill="#006e98" stroke="#00171F"></path><path d="M801 250L821 198L692 161Z" fill="#006790" stroke="#00171F"></path><path d="M181 369L185 450L284 450Z" fill="#005f88" stroke="#00171F"></path><path d="M119 450L185 450L181 369Z" fill="#005f88" stroke="#00171F"></path><path d="M597 450L684 450L610 355Z" fill="#005178" stroke="#00171F"></path><path d="M0 271L92 381L109 254Z" fill="#00769f" stroke="#00171F"></path><path d="M109 254L92 381L181 369Z" fill="#006e98" stroke="#00171F"></path><path d="M0 0L0 104L104 81Z" fill="#00769f" stroke="#00171F"></path><path d="M104 81L0 104L92 191Z" fill="#004970" stroke="#00171F"></path><path d="M92 191L0 271L109 254Z" fill="#006e98" stroke="#00171F"></path><path d="M786 450L800 346L684 350Z" fill="#006e98" stroke="#00171F"></path><path d="M900 274L900 191L821 198Z" fill="#007ea7" stroke="#00171F"></path><path d="M0 104L0 185L92 191Z" fill="#007ea7" stroke="#00171F"></path><path d="M117 0L0 0L104 81Z" fill="#005178" stroke="#00171F"></path><path d="M92 381L119 450L181 369Z" fill="#005f88" stroke="#00171F"></path><path d="M0 450L119 450L92 381Z" fill="#003b61" stroke="#00171F"></path><path d="M0 185L0 271L92 191Z" fill="#005f88" stroke="#00171F"></path><path d="M900 191L900 77L818 106Z" fill="#004970" stroke="#00171F"></path><path d="M818 106L900 0L780 0Z" fill="#007ea7" stroke="#00171F"></path><path d="M900 191L818 106L821 198Z" fill="#005178" stroke="#00171F"></path><path d="M900 274L821 198L801 250Z" fill="#007ea7" stroke="#00171F"></path><path d="M684 450L786 450L684 350Z" fill="#004970" stroke="#00171F"></path><path d="M800 346L900 274L801 250Z" fill="#007ea7" stroke="#00171F"></path><path d="M900 77L900 0L818 106Z" fill="#005f88" stroke="#00171F"></path><path d="M900 373L900 274L800 346Z" fill="#004970" stroke="#00171F"></path><path d="M0 271L0 367L92 381Z" fill="#007ea7" stroke="#00171F"></path><path d="M786 450L900 373L800 346Z" fill="#00769f" stroke="#00171F"></path><path d="M0 367L0 450L92 381Z" fill="#005880" stroke="#00171F"></path><path d="M786 450L900 450L900 373Z" fill="#005f88" stroke="#00171F"></path></g></svg>